<svg width="304" height="77" viewBox="0 0 304 77" fill="none" xmlns="http://www.w3.org/2000/svg">
    <path
        d="M74.1136 62V15.4545H91.1591C94.4621 15.4545 97.197 16 99.3636 17.0909C101.53 18.1667 103.152 19.6288 104.227 21.4773C105.303 23.3106 105.841 25.3788 105.841 27.6818C105.841 29.6212 105.485 31.2576 104.773 32.5909C104.061 33.9091 103.106 34.9697 101.909 35.7727C100.727 36.5606 99.4242 37.1364 98 37.5V37.9545C99.5455 38.0303 101.053 38.5303 102.523 39.4545C104.008 40.3636 105.235 41.6591 106.205 43.3409C107.174 45.0227 107.659 47.0682 107.659 49.4773C107.659 51.8561 107.098 53.9924 105.977 55.8864C104.871 57.7652 103.159 59.2576 100.841 60.3636C98.5227 61.4545 95.5606 62 91.9545 62H74.1136ZM81.1364 55.9773H91.2727C94.6364 55.9773 97.0455 55.3258 98.5 54.0227C99.9545 52.7197 100.682 51.0909 100.682 49.1364C100.682 47.6667 100.311 46.3182 99.5682 45.0909C98.8258 43.8636 97.7652 42.8864 96.3864 42.1591C95.0227 41.4318 93.4015 41.0682 91.5227 41.0682H81.1364V55.9773ZM81.1364 35.5909H90.5455C92.1212 35.5909 93.5379 35.2879 94.7955 34.6818C96.0682 34.0758 97.0758 33.2273 97.8182 32.1364C98.5758 31.0303 98.9545 29.7273 98.9545 28.2273C98.9545 26.303 98.2803 24.6894 96.9318 23.3864C95.5833 22.0833 93.5152 21.4318 90.7273 21.4318H81.1364V35.5909ZM122.239 15.4545V62H115.443V15.4545H122.239ZM146.085 62.7045C142.813 62.7045 139.956 61.9545 137.517 60.4545C135.078 58.9545 133.184 56.8561 131.835 54.1591C130.487 51.4621 129.812 48.3106 129.812 44.7045C129.812 41.0833 130.487 37.9167 131.835 35.2045C133.184 32.4924 135.078 30.3864 137.517 28.8864C139.956 27.3864 142.813 26.6364 146.085 26.6364C149.358 26.6364 152.214 27.3864 154.653 28.8864C157.093 30.3864 158.987 32.4924 160.335 35.2045C161.684 37.9167 162.358 41.0833 162.358 44.7045C162.358 48.3106 161.684 51.4621 160.335 54.1591C158.987 56.8561 157.093 58.9545 154.653 60.4545C152.214 61.9545 149.358 62.7045 146.085 62.7045ZM146.108 57C148.229 57 149.987 56.4394 151.381 55.3182C152.775 54.197 153.805 52.7045 154.472 50.8409C155.153 48.9773 155.494 46.9242 155.494 44.6818C155.494 42.4545 155.153 40.4091 154.472 38.5455C153.805 36.6667 152.775 35.1591 151.381 34.0227C149.987 32.8864 148.229 32.3182 146.108 32.3182C143.972 32.3182 142.199 32.8864 140.79 34.0227C139.396 35.1591 138.358 36.6667 137.676 38.5455C137.009 40.4091 136.676 42.4545 136.676 44.6818C136.676 46.9242 137.009 48.9773 137.676 50.8409C138.358 52.7045 139.396 54.197 140.79 55.3182C142.199 56.4394 143.972 57 146.108 57ZM184.58 75.8182C181.807 75.8182 179.42 75.4545 177.42 74.7273C175.436 74 173.814 73.0379 172.557 71.8409C171.299 70.6439 170.36 69.3333 169.739 67.9091L175.58 65.5C175.989 66.1667 176.534 66.8712 177.216 67.6136C177.913 68.3712 178.852 69.0152 180.034 69.5455C181.231 70.0758 182.769 70.3409 184.648 70.3409C187.223 70.3409 189.352 69.7121 191.034 68.4545C192.716 67.2121 193.557 65.2273 193.557 62.5V55.6364H193.125C192.716 56.3788 192.125 57.2045 191.352 58.1136C190.595 59.0227 189.549 59.8106 188.216 60.4773C186.883 61.1439 185.148 61.4773 183.011 61.4773C180.254 61.4773 177.769 60.8333 175.557 59.5455C173.36 58.2424 171.617 56.3258 170.33 53.7955C169.057 51.25 168.42 48.1212 168.42 44.4091C168.42 40.697 169.049 37.5152 170.307 34.8636C171.58 32.2121 173.322 30.1818 175.534 28.7727C177.746 27.3485 180.254 26.6364 183.057 26.6364C185.223 26.6364 186.973 27 188.307 27.7273C189.64 28.4394 190.678 29.2727 191.42 30.2273C192.178 31.1818 192.761 32.0227 193.17 32.75H193.67V27.0909H200.33V62.7727C200.33 65.7727 199.633 68.2348 198.239 70.1591C196.845 72.0833 194.958 73.5076 192.58 74.4318C190.216 75.3561 187.549 75.8182 184.58 75.8182ZM184.511 55.8409C186.466 55.8409 188.117 55.3864 189.466 54.4773C190.83 53.553 191.86 52.2348 192.557 50.5227C193.269 48.7955 193.625 46.7273 193.625 44.3182C193.625 41.9697 193.277 39.9015 192.58 38.1136C191.883 36.3258 190.86 34.9318 189.511 33.9318C188.163 32.9167 186.496 32.4091 184.511 32.4091C182.466 32.4091 180.761 32.9394 179.398 34C178.034 35.0455 177.004 36.4697 176.307 38.2727C175.625 40.0758 175.284 42.0909 175.284 44.3182C175.284 46.6061 175.633 48.6136 176.33 50.3409C177.027 52.0682 178.057 53.4167 179.42 54.3864C180.799 55.3561 182.496 55.8409 184.511 55.8409ZM224.148 62.7045C220.875 62.7045 218.019 61.9545 215.58 60.4545C213.14 58.9545 211.246 56.8561 209.898 54.1591C208.549 51.4621 207.875 48.3106 207.875 44.7045C207.875 41.0833 208.549 37.9167 209.898 35.2045C211.246 32.4924 213.14 30.3864 215.58 28.8864C218.019 27.3864 220.875 26.6364 224.148 26.6364C227.42 26.6364 230.277 27.3864 232.716 28.8864C235.155 30.3864 237.049 32.4924 238.398 35.2045C239.746 37.9167 240.42 41.0833 240.42 44.7045C240.42 48.3106 239.746 51.4621 238.398 54.1591C237.049 56.8561 235.155 58.9545 232.716 60.4545C230.277 61.9545 227.42 62.7045 224.148 62.7045ZM224.17 57C226.292 57 228.049 56.4394 229.443 55.3182C230.837 54.197 231.867 52.7045 232.534 50.8409C233.216 48.9773 233.557 46.9242 233.557 44.6818C233.557 42.4545 233.216 40.4091 232.534 38.5455C231.867 36.6667 230.837 35.1591 229.443 34.0227C228.049 32.8864 226.292 32.3182 224.17 32.3182C222.034 32.3182 220.261 32.8864 218.852 34.0227C217.458 35.1591 216.42 36.6667 215.739 38.5455C215.072 40.4091 214.739 42.4545 214.739 44.6818C214.739 46.9242 215.072 48.9773 215.739 50.8409C216.42 52.7045 217.458 54.197 218.852 55.3182C220.261 56.4394 222.034 57 224.17 57ZM264.301 27.0909V32.5455H245.233V27.0909H264.301ZM250.347 18.7273H257.142V51.75C257.142 53.0682 257.339 54.0606 257.733 54.7273C258.127 55.3788 258.634 55.8258 259.256 56.0682C259.892 56.2955 260.581 56.4091 261.324 56.4091C261.869 56.4091 262.347 56.3712 262.756 56.2955C263.165 56.2197 263.483 56.1591 263.71 56.1136L264.938 61.7273C264.544 61.8788 263.983 62.0303 263.256 62.1818C262.528 62.3485 261.619 62.4394 260.528 62.4545C258.741 62.4848 257.074 62.1667 255.528 61.5C253.983 60.8333 252.733 59.803 251.778 58.4091C250.824 57.0152 250.347 55.2652 250.347 53.1591V18.7273ZM276.114 75.0909C275.098 75.0909 274.174 75.0076 273.341 74.8409C272.508 74.6894 271.886 74.5227 271.477 74.3409L273.114 68.7727C274.356 69.1061 275.462 69.25 276.432 69.2045C277.402 69.1591 278.258 68.7955 279 68.1136C279.758 67.4318 280.424 66.3182 281 64.7727L281.841 62.4545L269.068 27.0909H276.341L285.182 54.1818H285.545L294.386 27.0909H301.682L287.295 66.6591C286.629 68.4773 285.78 70.0152 284.75 71.2727C283.72 72.5455 282.492 73.5 281.068 74.1364C279.644 74.7727 277.992 75.0909 276.114 75.0909Z"
        fill="url(#paint0_linear_22_11)" />
    <path
        d="M28.75 20.75C19.2263 20.75 11.5 28.4728 11.5 37.9983C11.5 44.3491 16.6491 49.4983 23 49.4983C29.3509 49.4983 34.4983 44.3491 34.5 37.9983C34.5 33.768 31.069 30.3329 26.8335 30.3329C22.5998 30.3329 19.1665 33.768 19.1665 37.9994C19.1665 40.1183 20.8828 41.833 23 41.833C25.1171 41.833 26.8335 40.1183 26.8335 37.9994H23C23 35.8806 24.7164 34.1659 26.8335 34.1659C28.9507 34.1659 30.6665 35.8806 30.6665 37.9994C30.6665 42.2349 27.2337 45.6659 23 45.6659C18.7663 45.6659 15.3335 42.2354 15.3335 38C15.3335 31.6509 20.4826 26.5 26.8335 26.5C33.1861 26.5 38.3312 31.6491 38.3335 37.9983V37.996V38V37.9983C38.3312 46.4663 31.468 53.3312 23 53.3312C14.532 53.3312 7.66647 46.4663 7.66647 37.9983V38V37.996V37.9983C7.66647 26.3557 17.108 16.9165 28.75 16.9165C30.2588 16.9165 31.7279 17.0809 33.1465 17.3828C30.0823 15.8723 26.6461 15 23 15C10.2982 15 0 25.2982 0 38C0 50.7017 10.2982 61 23 61C35.7017 61 46 50.7017 46 38C46 37.4049 45.9552 36.8207 45.9103 36.237C45.0271 27.539 37.682 20.75 28.75 20.75Z"
        fill="url(#paint1_linear_22_11)" />
    <defs>
        <linearGradient id="paint0_linear_22_11" x1="79.2471" y1="43.8103" x2="295.119" y2="45.2164"
            gradientUnits="userSpaceOnUse">
            <stop stop-color="#51DDBC" />
            <stop offset="0.53125" stop-color="#BD55E1" />
            <stop offset="1" stop-color="#6474E5" />
        </linearGradient>
        <linearGradient id="paint1_linear_22_11" x1="0" y1="38" x2="46" y2="38" gradientUnits="userSpaceOnUse">
            <stop stop-color="#46FFDE" />
            <stop offset="0.473958" stop-color="#BD55E1" />
            <stop offset="1" stop-color="#6474E5" />
        </linearGradient>
    </defs>
</svg>