<svg width="164" height="38" viewBox="0 0 164 38" fill="none" xmlns="http://www.w3.org/2000/svg">
<path d="M64.8906 19.8594H59.0781L59.0469 16.8281H64.0312C64.8854 16.8281 65.599 16.7083 66.1719 16.4688C66.7448 16.2292 67.1771 15.8802 67.4688 15.4219C67.7708 14.9635 67.9219 14.4062 67.9219 13.75C67.9219 13.0208 67.7812 12.4271 67.5 11.9688C67.2292 11.5104 66.8021 11.1771 66.2188 10.9688C65.6354 10.75 64.8958 10.6406 64 10.6406H60.4688V30H56.1719V7.25H64C65.2917 7.25 66.4427 7.375 67.4531 7.625C68.474 7.86458 69.3385 8.23958 70.0469 8.75C70.7552 9.26042 71.2917 9.90104 71.6562 10.6719C72.0312 11.4427 72.2188 12.3594 72.2188 13.4219C72.2188 14.3594 72 15.224 71.5625 16.0156C71.1354 16.7969 70.474 17.4323 69.5781 17.9219C68.6927 18.4115 67.5677 18.6927 66.2031 18.7656L64.8906 19.8594ZM64.7031 30H57.8125L59.6094 26.625H64.7031C65.5573 26.625 66.2604 26.4844 66.8125 26.2031C67.375 25.9219 67.7917 25.5365 68.0625 25.0469C68.3438 24.5469 68.4844 23.974 68.4844 23.3281C68.4844 22.6198 68.3594 22.0052 68.1094 21.4844C67.8698 20.9635 67.4844 20.5625 66.9531 20.2812C66.4323 20 65.7448 19.8594 64.8906 19.8594H60.4219L60.4531 16.8281H66.1406L67.125 18C68.4375 18.0104 69.5052 18.2708 70.3281 18.7812C71.1615 19.2917 71.776 19.9479 72.1719 20.75C72.5677 21.5521 72.7656 22.4167 72.7656 23.3438C72.7656 24.8021 72.4479 26.026 71.8125 27.0156C71.1875 28.0052 70.2708 28.75 69.0625 29.25C67.8646 29.75 66.4115 30 64.7031 30ZM80.5469 6V30H76.4062V6H80.5469ZM83.75 21.7188V21.3906C83.75 20.151 83.9271 19.0104 84.2812 17.9688C84.6354 16.9167 85.151 16.0052 85.8281 15.2344C86.5052 14.4635 87.3333 13.8646 88.3125 13.4375C89.2917 13 90.4062 12.7812 91.6562 12.7812C92.9271 12.7812 94.0521 13 95.0312 13.4375C96.0208 13.8646 96.8542 14.4635 97.5312 15.2344C98.2083 16.0052 98.724 16.9167 99.0781 17.9688C99.4323 19.0104 99.6094 20.151 99.6094 21.3906V21.7188C99.6094 22.9479 99.4323 24.0885 99.0781 25.1406C98.724 26.1823 98.2083 27.0938 97.5312 27.875C96.8542 28.6458 96.026 29.2448 95.0469 29.6719C94.0677 30.099 92.9479 30.3125 91.6875 30.3125C90.4375 30.3125 89.3177 30.099 88.3281 29.6719C87.3385 29.2448 86.5052 28.6458 85.8281 27.875C85.151 27.0938 84.6354 26.1823 84.2812 25.1406C83.9271 24.0885 83.75 22.9479 83.75 21.7188ZM87.875 21.3906V21.7188C87.875 22.4583 87.9479 23.151 88.0938 23.7969C88.2396 24.4427 88.4635 25.0104 88.7656 25.5C89.0677 25.9896 89.4583 26.375 89.9375 26.6562C90.4271 26.9271 91.0104 27.0625 91.6875 27.0625C92.3542 27.0625 92.9271 26.9271 93.4062 26.6562C93.8854 26.375 94.276 25.9896 94.5781 25.5C94.8906 25.0104 95.1198 24.4427 95.2656 23.7969C95.4115 23.151 95.4844 22.4583 95.4844 21.7188V21.3906C95.4844 20.6615 95.4115 19.9792 95.2656 19.3438C95.1198 18.6979 94.8906 18.1302 94.5781 17.6406C94.276 17.1406 93.8802 16.75 93.3906 16.4688C92.9115 16.1771 92.3333 16.0312 91.6562 16.0312C90.9896 16.0312 90.4167 16.1771 89.9375 16.4688C89.4583 16.75 89.0677 17.1406 88.7656 17.6406C88.4635 18.1302 88.2396 18.6979 88.0938 19.3438C87.9479 19.9792 87.875 20.6615 87.875 21.3906ZM113.359 13.0938H117.109V29.4844C117.109 31.0156 116.776 32.3125 116.109 33.375C115.453 34.4479 114.531 35.2604 113.344 35.8125C112.156 36.375 110.776 36.6562 109.203 36.6562C108.526 36.6562 107.792 36.5625 107 36.375C106.219 36.1875 105.464 35.8906 104.734 35.4844C104.016 35.0885 103.417 34.5729 102.938 33.9375L104.797 31.5C105.359 32.1562 105.995 32.651 106.703 32.9844C107.411 33.3281 108.177 33.5 109 33.5C109.833 33.5 110.542 33.3438 111.125 33.0312C111.719 32.7292 112.172 32.2812 112.484 31.6875C112.807 31.1042 112.969 30.3854 112.969 29.5312V16.9531L113.359 13.0938ZM101.938 21.75V21.4219C101.938 20.1302 102.094 18.9583 102.406 17.9062C102.719 16.8438 103.167 15.9323 103.75 15.1719C104.344 14.4115 105.057 13.8229 105.891 13.4062C106.734 12.9896 107.682 12.7812 108.734 12.7812C109.849 12.7812 110.786 12.9844 111.547 13.3906C112.318 13.7969 112.953 14.375 113.453 15.125C113.964 15.875 114.359 16.7656 114.641 17.7969C114.932 18.8177 115.156 19.9427 115.312 21.1719V22.0625C115.167 23.2604 114.932 24.3594 114.609 25.3594C114.297 26.3594 113.88 27.2344 113.359 27.9844C112.839 28.724 112.193 29.2969 111.422 29.7031C110.651 30.1094 109.745 30.3125 108.703 30.3125C107.661 30.3125 106.724 30.099 105.891 29.6719C105.057 29.2448 104.344 28.6458 103.75 27.875C103.167 27.1042 102.719 26.1979 102.406 25.1562C102.094 24.1146 101.938 22.9792 101.938 21.75ZM106.062 21.4219V21.75C106.062 22.4792 106.135 23.1615 106.281 23.7969C106.427 24.4323 106.651 24.9948 106.953 25.4844C107.255 25.9635 107.635 26.3385 108.094 26.6094C108.552 26.8802 109.099 27.0156 109.734 27.0156C110.589 27.0156 111.286 26.8385 111.828 26.4844C112.38 26.1198 112.797 25.625 113.078 25C113.37 24.3646 113.557 23.651 113.641 22.8594V20.4062C113.589 19.7812 113.474 19.2031 113.297 18.6719C113.13 18.1406 112.896 17.6823 112.594 17.2969C112.292 16.9115 111.906 16.6094 111.438 16.3906C110.969 16.1719 110.411 16.0625 109.766 16.0625C109.141 16.0625 108.594 16.2031 108.125 16.4844C107.656 16.7552 107.271 17.1354 106.969 17.625C106.667 18.1146 106.438 18.6823 106.281 19.3281C106.135 19.974 106.062 20.6719 106.062 21.4219ZM120.094 21.7188V21.3906C120.094 20.151 120.271 19.0104 120.625 17.9688C120.979 16.9167 121.495 16.0052 122.172 15.2344C122.849 14.4635 123.677 13.8646 124.656 13.4375C125.635 13 126.75 12.7812 128 12.7812C129.271 12.7812 130.396 13 131.375 13.4375C132.365 13.8646 133.198 14.4635 133.875 15.2344C134.552 16.0052 135.068 16.9167 135.422 17.9688C135.776 19.0104 135.953 20.151 135.953 21.3906V21.7188C135.953 22.9479 135.776 24.0885 135.422 25.1406C135.068 26.1823 134.552 27.0938 133.875 27.875C133.198 28.6458 132.37 29.2448 131.391 29.6719C130.411 30.099 129.292 30.3125 128.031 30.3125C126.781 30.3125 125.661 30.099 124.672 29.6719C123.682 29.2448 122.849 28.6458 122.172 27.875C121.495 27.0938 120.979 26.1823 120.625 25.1406C120.271 24.0885 120.094 22.9479 120.094 21.7188ZM124.219 21.3906V21.7188C124.219 22.4583 124.292 23.151 124.438 23.7969C124.583 24.4427 124.807 25.0104 125.109 25.5C125.411 25.9896 125.802 26.375 126.281 26.6562C126.771 26.9271 127.354 27.0625 128.031 27.0625C128.698 27.0625 129.271 26.9271 129.75 26.6562C130.229 26.375 130.62 25.9896 130.922 25.5C131.234 25.0104 131.464 24.4427 131.609 23.7969C131.755 23.151 131.828 22.4583 131.828 21.7188V21.3906C131.828 20.6615 131.755 19.9792 131.609 19.3438C131.464 18.6979 131.234 18.1302 130.922 17.6406C130.62 17.1406 130.224 16.75 129.734 16.4688C129.255 16.1771 128.677 16.0312 128 16.0312C127.333 16.0312 126.76 16.1771 126.281 16.4688C125.802 16.75 125.411 17.1406 125.109 17.6406C124.807 18.1302 124.583 18.6979 124.438 19.3438C124.292 19.9792 124.219 20.6615 124.219 21.3906ZM146.953 13.0938V16.0625H137.266V13.0938H146.953ZM139.859 8.9375H144V25.125C144 25.625 144.068 26.0104 144.203 26.2812C144.339 26.5521 144.542 26.7344 144.812 26.8281C145.083 26.9219 145.406 26.9688 145.781 26.9688C146.052 26.9688 146.302 26.9531 146.531 26.9219C146.76 26.8906 146.953 26.8594 147.109 26.8281L147.125 29.9219C146.781 30.0365 146.391 30.1302 145.953 30.2031C145.526 30.276 145.042 30.3125 144.5 30.3125C143.573 30.3125 142.76 30.1562 142.062 29.8438C141.365 29.5208 140.823 29.0052 140.438 28.2969C140.052 27.5781 139.859 26.6302 139.859 25.4531V8.9375ZM154.656 28.125L159.188 13.0938H163.609L156.828 32.5625C156.672 32.9792 156.469 33.4323 156.219 33.9219C155.979 34.4115 155.656 34.875 155.25 35.3125C154.844 35.7604 154.333 36.125 153.719 36.4062C153.115 36.6875 152.38 36.8281 151.516 36.8281C151.141 36.8281 150.807 36.8021 150.516 36.75C150.224 36.6979 149.917 36.6302 149.594 36.5469V33.4531C149.698 33.4635 149.818 33.4688 149.953 33.4688C150.099 33.4792 150.224 33.4844 150.328 33.4844C150.932 33.4844 151.432 33.4115 151.828 33.2656C152.224 33.1302 152.542 32.9062 152.781 32.5938C153.031 32.2917 153.24 31.8958 153.406 31.4062L154.656 28.125ZM152.422 13.0938L156.25 25.5469L156.922 29.9062L154.078 30.4219L147.969 13.0938H152.422Z" fill="#080808"/>
<path d="M22.5 4.5C15.0466 4.5 9 10.544 9 17.9986C9 22.9689 13.0297 26.9986 18 26.9986C22.9702 26.9986 26.9986 22.9689 27 17.9986C27 14.688 24.3148 11.9997 21.0001 11.9997C17.6868 11.9997 14.9998 14.688 14.9998 17.9995C14.9998 19.6578 16.3431 20.9997 18 20.9997C19.6569 20.9997 21.0001 19.6578 21.0001 17.9995H18C18 16.3413 19.3433 14.9994 21.0001 14.9994C22.657 14.9994 23.9998 16.3413 23.9998 17.9995C23.9998 21.3142 21.3133 23.9994 18 23.9994C14.6866 23.9994 12.0001 21.3147 12.0001 18C12.0001 13.0311 16.0299 9 21.0001 9C25.9718 9 29.9983 13.0298 30.0001 17.9986V17.9968V18V17.9986C29.9983 24.6258 24.6271 29.9984 18 29.9984C11.3728 29.9984 5.99985 24.6258 5.99985 17.9986V18V17.9968V17.9986C5.99985 8.88705 13.3889 1.49985 22.5 1.49985C23.6808 1.49985 24.8306 1.62855 25.9407 1.8648C23.5427 0.68265 20.8534 0 18 0C8.0595 0 0 8.0595 0 18C0 27.9405 8.0595 36 18 36C27.9405 36 36 27.9405 36 18C36 17.5343 35.9649 17.077 35.9298 16.6203C35.2386 9.81315 29.4903 4.5 22.5 4.5Z" fill="#080808"/>
</svg>
