<svg width="46" height="46" viewBox="0 0 46 46" fill="none" xmlns="http://www.w3.org/2000/svg">
    <path
        d="M28.75 5.75C19.2263 5.75 11.5 13.4728 11.5 22.9983C11.5 29.3491 16.6491 34.4983 23 34.4983C29.3509 34.4983 34.4983 29.3491 34.5 22.9983C34.5 18.768 31.069 15.3329 26.8335 15.3329C22.5998 15.3329 19.1665 18.768 19.1665 22.9994C19.1665 25.1183 20.8828 26.833 23 26.833C25.1171 26.833 26.8335 25.1183 26.8335 22.9994H23C23 20.8806 24.7164 19.1659 26.8335 19.1659C28.9507 19.1659 30.6665 20.8806 30.6665 22.9994C30.6665 27.2349 27.2337 30.6659 23 30.6659C18.7663 30.6659 15.3335 27.2354 15.3335 23C15.3335 16.6509 20.4826 11.5 26.8335 11.5C33.1861 11.5 38.3312 16.6491 38.3335 22.9983V22.996V23V22.9983C38.3312 31.4663 31.468 38.3312 23 38.3312C14.532 38.3312 7.66647 31.4663 7.66647 22.9983V23V22.996V22.9983C7.66647 11.3557 17.108 1.91648 28.75 1.91648C30.2588 1.91648 31.7279 2.08092 33.1465 2.3828C30.0823 0.872275 26.6461 0 23 0C10.2982 0 0 10.2982 0 23C0 35.7017 10.2982 46 23 46C35.7017 46 46 35.7017 46 23C46 22.4049 45.9552 21.8207 45.9103 21.237C45.0271 12.539 37.682 5.75 28.75 5.75Z"
        fill="#313131" />
</svg>