<svg width="489" height="386" viewBox="0 0 489 386" fill="none" xmlns="http://www.w3.org/2000/svg">
    <g opacity="0.78">
        <path
            d="M415.048 270.147C422.537 208.943 386.242 127.598 348.636 94.0059C280.716 33.3495 224.302 45.0896 180.421 66.8119C136.54 88.5343 130.276 161.05 99.9735 193.879C69.6708 226.708 52.4437 270.82 98.4089 314.751C144.374 358.682 181.438 336.36 229.527 333.574C277.616 330.787 341.322 352.73 375.815 333.653C399.894 320.319 411.755 297.2 415.048 270.147Z"
            fill="black" />
        <path opacity="0.7"
            d="M415.048 270.147C422.537 208.943 386.242 127.598 348.636 94.0059C280.716 33.3495 224.302 45.0896 180.421 66.8119C136.54 88.5343 130.276 161.05 99.9735 193.879C69.6708 226.708 52.4437 270.82 98.4089 314.751C144.374 358.682 181.438 336.36 229.527 333.574C277.616 330.787 341.322 352.73 375.815 333.653C399.894 320.319 411.755 297.2 415.048 270.147Z"
            fill="black" />
    </g>
    <g opacity="0.7">
        <path
            d="M228.888 363.232C292.481 363.232 344.033 347.157 344.033 327.328C344.033 307.498 292.481 291.423 228.888 291.423C165.296 291.423 113.744 307.498 113.744 327.328C113.744 347.157 165.296 363.232 228.888 363.232Z"
            fill="black" />
        <path opacity="0.5"
            d="M228.888 363.232C292.481 363.232 344.033 347.157 344.033 327.328C344.033 307.498 292.481 291.423 228.888 291.423C165.296 291.423 113.744 307.498 113.744 327.328C113.744 347.157 165.296 363.232 228.888 363.232Z"
            fill="black" />
    </g>
    <path d="M224.861 267.994V42.4951" stroke="#403E57" stroke-miterlimit="10" />
    <path d="M78.3916 270.221H220.535L436.472 339.978" stroke="#403E57" stroke-miterlimit="10" />
    <path
        d="M143.143 264.936H133.298V102.468H153.564L144.815 70.8817H118.579L109.83 102.468H130.095V264.936H120.245C117.727 264.936 115.31 265.925 113.514 267.69C111.719 269.456 110.687 271.856 110.643 274.376C110.643 274.376 110.643 274.426 110.643 274.449V274.562C110.937 276.823 120.245 278.643 131.677 278.643C143.109 278.643 152.417 276.823 152.711 274.562H152.762C152.764 273.297 152.517 272.045 152.034 270.876C151.551 269.707 150.843 268.645 149.949 267.75C149.056 266.856 147.994 266.147 146.826 265.664C145.658 265.181 144.407 264.934 143.143 264.936Z"
        fill="#403E57" />
    <path
        d="M273.938 31.3146V222.61L417.855 246.305V7.61951L273.938 31.3146ZM414.127 86.0868L340.949 90.2357V23.7799L414.116 12.1245L414.127 86.0868ZM340.938 97.2221L414.116 93.8645V160.699L340.938 157.274V97.2221ZM335.001 156.997L276.35 154.255V100.195L335.001 97.5047V156.997ZM335.001 24.7295V90.5692L276.35 93.8985V34.0617L335.001 24.7295ZM276.35 160.53L335.001 163.921V229.201L276.35 219.88V160.53ZM340.938 230.145V164.271L414.116 168.482V241.8L340.938 230.145Z"
        fill="#CCCCCC" />
    <path
        d="M214.564 169.008C214.564 169.008 188.47 165.916 171.299 179.318C154.129 192.72 139.37 248.73 139.714 275.529C140.059 302.327 150.011 315.734 175.078 326.728C200.145 337.722 246.81 333.602 272.933 325.355C299.056 317.108 307.613 288.241 307.269 272.787C306.924 257.333 289.759 239.438 283.919 235.679C278.079 231.92 261.603 223.995 253.362 211.622C245.121 199.249 233.102 172.467 214.564 169.008Z"
        fill="#CCCCCC" />
    <path opacity="0.13"
        d="M277.717 323.552C267.85 322.218 256.152 319.539 247.296 314.157C228.595 302.796 223.918 281.407 217.242 273.386C210.566 265.365 198.54 266.038 193.203 257.35C187.865 248.663 196.541 184.502 181.178 180.477C178.055 179.582 174.824 179.122 171.576 179.109L171.277 179.33C154.112 192.732 139.347 248.742 139.692 275.54C140.036 302.338 149.988 315.746 175.055 326.74C200.122 337.734 246.788 333.613 272.911 325.366C274.547 324.855 276.152 324.249 277.717 323.552Z"
        fill="black" />
    <path
        d="M204.29 181.144C204.29 181.144 187.261 184.405 184.25 187.413C181.24 190.42 168.724 237.533 168.724 237.533C168.724 237.533 174.236 236.029 179.246 238.036C184.256 240.043 184.753 245.316 185.261 247.809C185.77 250.302 186.013 256.853 186.013 256.853C186.013 256.853 236.632 252.331 247.403 249.821C258.174 247.312 274.56 246.164 274.56 246.164C274.56 246.164 246.884 183.676 242.608 181.421C238.332 179.166 220.58 178.911 218.066 179.414C215.553 179.917 204.29 181.144 204.29 181.144Z"
        fill="white" />
    <g opacity="0.13">
        <path
            d="M187.521 239.212C187.498 239.21 187.476 239.203 187.456 239.192C187.435 239.181 187.418 239.166 187.403 239.148C187.389 239.13 187.379 239.11 187.373 239.087C187.367 239.065 187.365 239.042 187.368 239.019L191.627 204.183C191.629 204.161 191.636 204.138 191.647 204.118C191.658 204.098 191.672 204.08 191.69 204.066C191.708 204.052 191.729 204.041 191.751 204.035C191.773 204.029 191.796 204.028 191.819 204.031C191.842 204.033 191.864 204.04 191.884 204.05C191.904 204.061 191.922 204.076 191.936 204.094C191.951 204.112 191.961 204.133 191.967 204.155C191.973 204.177 191.975 204.2 191.972 204.223L187.713 239.059C187.711 239.082 187.704 239.104 187.693 239.124C187.682 239.144 187.667 239.162 187.649 239.176C187.632 239.191 187.611 239.201 187.589 239.207C187.567 239.213 187.544 239.215 187.521 239.212Z"
            fill="black" />
    </g>
    <g opacity="0.13">
        <path
            d="M190.763 213.662C190.726 213.66 190.69 213.647 190.661 213.623C190.643 213.61 190.627 213.593 190.615 213.573C190.603 213.553 190.595 213.531 190.592 213.509C190.589 213.486 190.591 213.463 190.597 213.441C190.603 213.419 190.613 213.398 190.627 213.38L196.389 205.862C196.417 205.826 196.458 205.802 196.503 205.796C196.548 205.789 196.595 205.801 196.631 205.828C196.65 205.842 196.665 205.859 196.676 205.879C196.687 205.899 196.695 205.921 196.697 205.944C196.7 205.966 196.698 205.989 196.692 206.011C196.685 206.033 196.674 206.054 196.66 206.071L190.91 213.583C190.893 213.606 190.87 213.626 190.845 213.639C190.82 213.653 190.792 213.661 190.763 213.662Z"
            fill="black" />
    </g>
    <g opacity="0.13">
        <path
            d="M208.046 218.185C208.009 218.183 207.973 218.171 207.943 218.149C207.912 218.126 207.889 218.096 207.877 218.06C207.87 218.039 207.867 218.016 207.869 217.993C207.871 217.971 207.878 217.949 207.888 217.929C207.899 217.909 207.913 217.891 207.931 217.877C207.948 217.863 207.968 217.852 207.99 217.845C208.154 217.789 224.421 212.572 235.101 212.572C235.148 212.572 235.192 212.59 235.225 212.623C235.258 212.656 235.277 212.7 235.277 212.747C235.277 212.793 235.258 212.838 235.225 212.871C235.192 212.904 235.148 212.922 235.101 212.922C224.483 212.922 208.272 218.122 208.109 218.173L208.046 218.185Z"
            fill="black" />
    </g>
    <g opacity="0.13">
        <path
            d="M233.085 225.177C233.045 225.176 233.006 225.162 232.975 225.136C232.944 225.11 232.923 225.075 232.915 225.035C231.944 220.163 224.319 215.923 224.234 215.884C224.21 215.871 224.19 215.852 224.175 215.83C224.159 215.808 224.149 215.782 224.145 215.755C224.142 215.728 224.144 215.701 224.153 215.675C224.161 215.65 224.175 215.626 224.195 215.607C224.195 215.607 225.375 214.403 225.149 213.261C224.968 212.345 223.042 212.131 222.325 212.131C222.3 212.132 222.276 212.127 222.254 212.117C222.231 212.107 222.211 212.093 222.195 212.074C222.178 212.056 222.166 212.035 222.159 212.011C222.152 211.988 222.151 211.963 222.156 211.938L223.24 203.584C223.247 203.538 223.271 203.497 223.308 203.468C223.345 203.44 223.391 203.427 223.438 203.432C223.483 203.439 223.524 203.463 223.552 203.5C223.579 203.537 223.591 203.584 223.585 203.629L222.54 211.803C223.2 211.831 225.279 212.012 225.516 213.193C225.731 214.256 224.951 215.29 224.618 215.686C225.855 216.393 232.351 220.321 233.283 224.967C233.291 225.013 233.281 225.06 233.254 225.098C233.228 225.137 233.187 225.163 233.141 225.171L233.085 225.177Z"
            fill="black" />
    </g>
    <path
        d="M213.638 171.789C213.638 171.789 204.29 174.796 202.952 177.136C201.613 179.477 202.618 195.846 202.618 197.853C202.618 199.859 203.788 196.683 204.787 194.342C205.787 192.002 209.306 188.498 210.464 188.831C211.622 189.165 212.299 190.527 212.299 192.675C212.299 194.823 214.971 197.836 217.309 199.531C219.648 201.227 221.828 202.872 221.828 202.872C221.828 202.872 226.669 195.852 227.838 194.015C229.007 192.178 228.843 188.334 229.007 187C229.171 185.666 232.181 190.674 232.848 189.34C233.514 188.006 231.345 186.83 229.007 183.156C226.669 179.482 227.341 175.639 223.833 172.982C220.326 170.325 216.327 171.122 213.638 171.789Z"
        fill="white" />
    <g opacity="0.2">
        <path
            d="M213.638 171.789C213.638 171.789 204.29 174.796 202.952 177.136C201.613 179.477 202.618 195.846 202.618 197.853C202.618 199.859 203.788 196.683 204.787 194.342C205.787 192.002 209.306 188.498 210.464 188.831C211.622 189.165 212.299 190.527 212.299 192.675C212.299 194.823 214.971 197.836 217.309 199.531C219.648 201.227 221.828 202.872 221.828 202.872C221.828 202.872 226.669 195.852 227.838 194.015C229.007 192.178 228.843 188.334 229.007 187C229.171 185.666 232.181 190.674 232.848 189.34C233.514 188.006 231.345 186.83 229.007 183.156C226.669 179.482 227.341 175.639 223.833 172.982C220.326 170.325 216.327 171.122 213.638 171.789Z"
            fill="black" />
    </g>
    <path
        d="M191.514 239.539C191.514 239.539 185.753 231.27 178.743 230.496C171.734 229.721 163.216 235.509 162.968 237.51C162.719 239.511 160.963 250.296 162.217 251.8C163.471 253.303 168.226 254.552 177.467 251.545C186.707 248.538 190.514 244.802 191.514 239.539Z"
        fill="white" />
    <g opacity="0.2">
        <path
            d="M191.514 239.539C191.514 239.539 185.753 231.27 178.743 230.496C171.734 229.721 163.216 235.509 162.968 237.51C162.719 239.511 160.963 250.296 162.217 251.8C163.471 253.303 168.226 254.552 177.467 251.545C186.707 248.538 190.514 244.802 191.514 239.539Z"
            fill="black" />
    </g>
    <path
        d="M171.983 241.795C171.983 241.795 162.584 245.531 162.217 252.823C162.013 256.859 168.724 258.588 175.739 258.588C182.754 258.588 192.768 249.816 199.28 246.057C205.793 242.298 220.817 233.525 222.568 232.773C224.319 232.022 230.334 234.028 232.836 234.78C235.339 235.532 240.1 235.532 240.1 235.532C240.1 235.532 243.608 241.043 245.359 241.043C247.109 241.043 241.602 232.773 240.84 231.021C240.077 229.269 227.815 225.256 226.313 225.256C224.81 225.256 189.78 234.011 184.505 236.029C179.229 238.047 171.983 241.795 171.983 241.795Z"
        fill="#F9B499" />
    <path
        d="M245.229 186.056L237.598 229.015L292.691 229.263L300.886 188.526C300.959 188.165 300.952 187.793 300.866 187.435C300.78 187.077 300.617 186.742 300.388 186.454C300.16 186.166 299.871 185.931 299.542 185.765C299.214 185.6 298.853 185.508 298.486 185.496L247.793 183.97C247.186 183.951 246.593 184.152 246.122 184.535C245.652 184.918 245.334 185.458 245.229 186.056Z"
        fill="#403E57" />
    <path opacity="0.2"
        d="M245.229 186.056L237.598 229.015L292.691 229.263L300.886 188.526C300.959 188.165 300.952 187.793 300.866 187.435C300.78 187.077 300.617 186.742 300.388 186.454C300.16 186.166 299.871 185.931 299.542 185.765C299.214 185.6 298.853 185.508 298.486 185.496L247.793 183.97C247.186 183.951 246.593 184.152 246.122 184.535C245.652 184.918 245.334 185.458 245.229 186.056Z"
        fill="white" />
    <path d="M237.598 229.015L210.769 248.001L272.125 246.249L292.691 229.263L237.598 229.015Z" fill="#403E57" />
    <g opacity="0.2">
        <path d="M237.598 229.015L210.769 248.001L272.125 246.249L292.691 229.263L237.598 229.015Z" fill="black" />
    </g>
    <path
        d="M257.881 247.809C257.881 247.809 279.909 228.512 301.705 221.994C323.502 215.477 328.003 216.483 327.501 226.256C326.998 236.029 316.481 287.144 309.471 300.19C302.462 313.236 293.707 337.033 293.944 341.544C294.182 346.054 302.71 359.337 310.223 364.097C317.735 368.856 317.001 374.627 312.222 375.628C307.444 376.628 301.959 378.386 285.675 367.856C269.392 357.325 262.631 342.295 263.647 338.536C264.664 334.778 275.164 329.764 279.423 322.246C283.682 314.728 290.691 286.636 291.194 273.872C291.602 265.804 293.293 257.853 296.204 250.319C296.204 250.319 268.657 255.327 260.62 260.34L257.881 247.809Z"
        fill="#F9B499" />
    <path
        d="M279.417 322.246C279.101 322.811 278.734 323.377 278.355 323.891C282.219 324.321 287.788 325.694 292.442 329.764C293.64 330.808 294.782 331.913 295.865 333.076C300.666 326.632 306.066 306.261 312.154 297.884C327.896 276.241 326.998 236.029 327.501 226.256C328.003 216.483 323.496 215.483 301.705 221.994C279.914 228.506 257.881 247.809 257.881 247.809L260.637 260.34C268.652 255.327 296.221 250.319 296.221 250.319C293.31 257.853 291.618 265.805 291.211 273.872C290.685 286.658 283.676 314.728 279.417 322.246Z"
        fill="#403E57" />
    <path
        d="M279.417 322.246C279.101 322.811 278.734 323.377 278.355 323.891C282.219 324.321 287.788 325.694 292.442 329.764C293.64 330.808 294.782 331.913 295.865 333.076C300.666 326.632 306.066 306.261 312.154 297.884C327.896 276.241 326.998 236.029 327.501 226.256C328.003 216.483 323.496 215.483 301.705 221.994C279.914 228.506 257.881 247.809 257.881 247.809L260.637 260.34C268.652 255.327 296.221 250.319 296.221 250.319C293.31 257.853 291.618 265.805 291.211 273.872C290.685 286.658 283.676 314.728 279.417 322.246Z"
        fill="#403E57" />
    <path
        d="M224.861 267.994C224.861 267.994 237.225 267.649 248.555 263.528C259.886 259.408 239.287 251.845 231.385 255.965C229.178 257.037 227.363 258.774 226.193 260.931C225.023 263.088 224.557 265.558 224.861 267.994Z"
        fill="#3F3D56" />
    <path opacity="0.2"
        d="M224.861 267.994C224.861 267.994 237.225 267.649 248.555 263.528C259.886 259.408 239.287 251.845 231.385 255.965C229.178 257.037 227.363 258.774 226.193 260.931C225.023 263.088 224.557 265.558 224.861 267.994Z"
        fill="black" />
    <path
        d="M192.265 251.822C192.265 251.822 184.25 256.344 181.5 261.347C178.749 266.349 190.599 274.709 203.121 274.212C215.643 273.714 238.598 260.08 238.598 260.08C238.598 260.08 238.846 282.125 243.116 290.151C247.386 298.178 266.906 317.724 274.673 322.732C282.439 327.74 308.477 346.546 312.516 349.553C316.554 352.56 324.033 358.071 325.789 358.326C327.546 358.58 345.823 336.281 350.076 328.752C354.33 321.223 358.086 305.441 356.583 301.931C355.081 298.421 352.065 301.434 349.071 303.938C346.078 306.442 318.52 324.739 316.018 325.982C314.65 326.686 313.225 327.272 311.759 327.735C311.759 327.735 289.189 306.204 277.164 289.665C265.139 273.126 264.139 251.794 259.654 243.801C255.169 235.809 248.635 232.27 238.869 233.277C229.103 234.283 208.798 239.539 192.265 251.822Z"
        fill="#F9B499" />
    <path
        d="M309.195 326.254C303.874 321.059 284.032 294.408 276.198 279.067C264.709 256.593 263.467 248.934 258.959 240.919C254.452 232.903 247.663 232.27 237.88 233.277C228.098 234.283 210.639 236.103 189.198 248.261C189.198 248.261 180.195 253.156 177.439 258.17C174.682 263.184 185.55 277.06 202.986 275.466C215.468 274.336 237.361 261.386 237.361 261.386C237.361 261.386 237.88 282.148 242.139 290.163C246.398 298.178 265.929 317.735 273.69 322.743C278.615 325.926 290.883 334.614 300.237 341.368C302.569 332.974 306.698 328.407 309.195 326.254Z"
        fill="#403E57" />
    <path
        d="M312.476 349.564C316.481 352.571 323.993 358.083 325.75 358.337C327.506 358.591 345.784 336.292 350.037 328.763C354.29 321.234 358.046 305.453 356.544 301.942C355.041 298.432 352.025 301.445 349.031 303.949C346.038 306.453 318.48 324.75 315.978 325.994C315.317 326.321 314.719 326.593 314.182 326.825C313.459 328.198 312.584 330.329 313.222 331.759C314.221 334.02 318.48 337.022 318.48 337.022L310.906 348.394C311.584 348.897 312.12 349.321 312.476 349.564Z"
        fill="white" />
    <path
        d="M350.043 328.763C354.296 321.24 358.052 305.453 356.549 301.942C355.68 299.913 354.29 300.071 352.72 301.049C353.77 305.735 352.72 314.774 347.535 324.501C342.92 333.184 328.658 348.524 321.468 356.002C323.417 357.286 325.049 358.235 325.75 358.337C327.501 358.586 345.784 336.281 350.043 328.763Z"
        fill="white" />
    <path
        d="M310.223 364.097C302.71 359.337 294.193 346.054 293.944 341.543C293.934 341.047 293.974 340.551 294.063 340.063C292.567 340.119 291.125 340.636 289.934 341.543C289.934 341.543 284.427 336.53 280.168 333.771C277.118 331.799 273.182 331.239 271.188 331.081C267.55 334.071 264.184 336.49 263.642 338.536C262.636 342.295 269.403 357.331 285.67 367.856C301.937 378.38 307.455 376.628 312.216 375.628C316.978 374.627 317.735 368.862 310.223 364.097Z"
        fill="white" />
    <path
        d="M311.471 365.855C304.964 362.096 291.702 359.586 283.173 353.821C274.645 348.055 276.915 343.047 270.651 339.034C267.776 337.197 265.376 337.626 263.625 338.633C262.755 342.544 269.533 357.416 285.681 367.856C301.959 378.386 307.466 376.628 312.228 375.628C315.391 374.961 316.746 372.191 315.137 369.009C314.112 367.747 312.871 366.679 311.471 365.855Z"
        fill="white" />
    <path
        d="M186.679 317.916C186.679 317.916 191.475 312.072 192.175 316.537C192.875 321.003 191.83 329.255 188.396 332.364C184.962 335.473 183.245 330.668 183.245 330.668L185.307 327.915C185.307 327.915 187.001 331.352 188.396 325.858C189.791 320.364 185.651 321.048 185.651 321.048L186.679 317.916Z"
        fill="#403E57" />
    <path
        d="M183.002 339.904C180.178 342.013 170.887 342.013 168.04 339.904C162.019 335.445 163.058 313.903 163.058 313.903H187.961C187.961 313.903 189.018 335.445 183.002 339.904Z"
        fill="#403E57" />
    <path
        d="M165.764 309.839C165.741 309.84 165.718 309.836 165.697 309.828C165.676 309.82 165.657 309.807 165.64 309.791C165.624 309.775 165.611 309.757 165.602 309.736C165.593 309.715 165.589 309.692 165.589 309.669C165.593 309.132 165.711 308.603 165.936 308.115C166.161 307.628 166.487 307.194 166.893 306.843C167.271 306.525 167.575 306.128 167.783 305.679C167.992 305.231 168.1 304.743 168.1 304.249C168.1 303.754 167.992 303.266 167.783 302.818C167.575 302.37 167.271 301.973 166.893 301.654C166.486 301.304 166.16 300.871 165.936 300.383C165.712 299.895 165.596 299.365 165.596 298.828C165.596 298.291 165.712 297.761 165.936 297.273C166.16 296.785 166.486 296.351 166.893 296.002C167.272 295.683 167.577 295.286 167.786 294.837C167.995 294.389 168.103 293.899 168.103 293.404C168.103 292.909 167.995 292.42 167.786 291.972C167.577 291.523 167.272 291.125 166.893 290.807C166.487 290.457 166.161 290.023 165.938 289.535C165.715 289.048 165.599 288.517 165.599 287.981C165.599 287.444 165.715 286.914 165.938 286.426C166.161 285.939 166.487 285.505 166.893 285.155C167.269 284.833 167.571 284.434 167.779 283.986C167.988 283.537 168.098 283.049 168.102 282.555C168.101 282.532 168.105 282.51 168.113 282.489C168.122 282.468 168.134 282.449 168.15 282.433C168.166 282.417 168.185 282.405 168.206 282.396C168.227 282.388 168.249 282.384 168.272 282.385C168.294 282.384 168.317 282.388 168.338 282.396C168.359 282.404 168.379 282.417 168.395 282.433C168.411 282.448 168.424 282.467 168.433 282.488C168.442 282.509 168.447 282.532 168.447 282.555C168.441 283.091 168.322 283.619 168.099 284.106C167.875 284.593 167.551 285.028 167.148 285.381C166.769 285.699 166.464 286.097 166.255 286.545C166.046 286.994 165.938 287.483 165.938 287.978C165.938 288.473 166.046 288.962 166.255 289.411C166.464 289.86 166.769 290.257 167.148 290.575C167.553 290.926 167.878 291.36 168.101 291.848C168.324 292.335 168.439 292.865 168.439 293.402C168.439 293.938 168.324 294.468 168.101 294.955C167.878 295.443 167.553 295.877 167.148 296.228C166.769 296.546 166.464 296.944 166.255 297.392C166.046 297.841 165.938 298.33 165.938 298.825C165.938 299.32 166.046 299.809 166.255 300.258C166.464 300.707 166.769 301.104 167.148 301.422C167.554 301.773 167.88 302.206 168.103 302.694C168.327 303.182 168.442 303.712 168.442 304.249C168.442 304.785 168.327 305.315 168.103 305.803C167.88 306.291 167.554 306.725 167.148 307.075C166.772 307.397 166.47 307.795 166.262 308.244C166.053 308.692 165.943 309.18 165.939 309.675C165.938 309.697 165.933 309.719 165.924 309.739C165.915 309.76 165.902 309.778 165.885 309.793C165.869 309.809 165.85 309.82 165.829 309.828C165.808 309.836 165.786 309.84 165.764 309.839Z"
        fill="#3F3D56" />
    <path
        d="M174.366 309.839C174.344 309.84 174.321 309.836 174.3 309.828C174.279 309.819 174.26 309.807 174.245 309.791C174.229 309.775 174.216 309.756 174.208 309.735C174.2 309.714 174.196 309.692 174.197 309.669C174.197 308.539 174.863 308.007 175.513 307.476C176.162 306.945 176.704 306.493 176.704 305.549C176.704 304.605 176.14 304.124 175.513 303.621C174.886 303.118 174.197 302.542 174.197 301.428C174.197 300.315 174.863 299.766 175.513 299.229C176.162 298.692 176.704 298.251 176.704 297.302C176.704 296.352 176.14 295.877 175.513 295.374C174.886 294.871 174.197 294.289 174.197 293.175C174.197 292.062 174.863 291.514 175.513 290.982C176.162 290.451 176.704 289.999 176.704 289.049C176.704 289.026 176.709 289.004 176.718 288.983C176.727 288.962 176.74 288.943 176.756 288.927C176.772 288.911 176.792 288.899 176.813 288.891C176.834 288.883 176.857 288.879 176.88 288.88C176.902 288.879 176.924 288.883 176.945 288.891C176.966 288.899 176.985 288.912 177.001 288.928C177.017 288.943 177.029 288.962 177.038 288.983C177.046 289.004 177.05 289.027 177.049 289.049C177.049 290.18 176.382 290.745 175.733 291.248C175.083 291.751 174.53 292.232 174.53 293.175C174.53 294.119 175.095 294.6 175.722 295.109C176.349 295.617 177.038 296.188 177.038 297.302C177.038 298.415 176.371 298.969 175.722 299.501C175.072 300.032 174.53 300.478 174.53 301.428C174.53 302.378 175.095 302.852 175.722 303.356C176.349 303.859 177.038 304.435 177.038 305.549C177.038 306.662 176.371 307.211 175.722 307.742C175.072 308.273 174.53 308.72 174.53 309.669C174.53 309.713 174.513 309.756 174.482 309.787C174.452 309.819 174.41 309.837 174.366 309.839Z"
        fill="#3F3D56" />
    <path
        d="M183.833 309.839C183.81 309.84 183.787 309.836 183.766 309.828C183.745 309.82 183.725 309.807 183.709 309.791C183.693 309.775 183.68 309.757 183.671 309.736C183.662 309.715 183.657 309.692 183.657 309.669C183.661 309.132 183.78 308.603 184.005 308.115C184.23 307.628 184.556 307.194 184.962 306.843C185.34 306.525 185.644 306.128 185.852 305.679C186.061 305.231 186.169 304.743 186.169 304.249C186.169 303.754 186.061 303.266 185.852 302.818C185.644 302.37 185.34 301.973 184.962 301.654C184.555 301.304 184.229 300.871 184.005 300.383C183.781 299.895 183.665 299.365 183.665 298.828C183.665 298.291 183.781 297.761 184.005 297.273C184.229 296.785 184.555 296.351 184.962 296.002C185.341 295.683 185.646 295.286 185.855 294.837C186.064 294.389 186.172 293.899 186.172 293.404C186.172 292.909 186.064 292.42 185.855 291.972C185.646 291.523 185.341 291.125 184.962 290.807C184.556 290.457 184.23 290.023 184.007 289.535C183.783 289.048 183.668 288.517 183.668 287.981C183.668 287.444 183.783 286.914 184.007 286.426C184.23 285.939 184.556 285.505 184.962 285.155C185.337 284.833 185.639 284.434 185.848 283.986C186.056 283.537 186.167 283.049 186.171 282.555C186.17 282.532 186.174 282.51 186.182 282.489C186.19 282.468 186.203 282.449 186.219 282.433C186.235 282.417 186.254 282.405 186.275 282.396C186.296 282.388 186.318 282.384 186.34 282.385C186.363 282.384 186.386 282.388 186.407 282.396C186.428 282.404 186.448 282.417 186.464 282.433C186.48 282.448 186.493 282.467 186.502 282.488C186.511 282.509 186.515 282.532 186.515 282.555C186.51 283.091 186.391 283.619 186.167 284.106C185.943 284.593 185.619 285.028 185.216 285.381C184.838 285.699 184.533 286.097 184.324 286.545C184.115 286.994 184.007 287.483 184.007 287.978C184.007 288.473 184.115 288.962 184.324 289.411C184.533 289.86 184.838 290.257 185.216 290.575C185.622 290.926 185.947 291.36 186.17 291.848C186.393 292.335 186.508 292.865 186.508 293.402C186.508 293.938 186.393 294.468 186.17 294.955C185.947 295.443 185.622 295.877 185.216 296.228C184.838 296.546 184.533 296.944 184.324 297.392C184.115 297.841 184.007 298.33 184.007 298.825C184.007 299.32 184.115 299.809 184.324 300.258C184.533 300.707 184.838 301.104 185.216 301.422C185.623 301.773 185.948 302.206 186.172 302.694C186.395 303.182 186.511 303.712 186.511 304.249C186.511 304.785 186.395 305.315 186.172 305.803C185.948 306.291 185.623 306.725 185.216 307.075C184.84 307.396 184.538 307.795 184.329 308.243C184.121 308.692 184.011 309.18 184.008 309.675C184.007 309.697 184.002 309.719 183.993 309.739C183.983 309.76 183.97 309.778 183.954 309.793C183.938 309.809 183.919 309.82 183.898 309.828C183.877 309.836 183.855 309.84 183.833 309.839Z"
        fill="#3F3D56" />
    <path
        d="M187.961 313.897C187.961 314.519 182.386 315.028 175.535 315.028C168.684 315.028 163.109 314.519 163.109 313.897C163.109 313.276 168.684 312.767 175.535 312.767C182.386 312.767 187.961 313.27 187.961 313.897Z"
        fill="#403E57" />
    <path opacity="0.13"
        d="M187.961 313.897C187.961 314.519 182.386 315.028 175.535 315.028C168.684 315.028 163.109 314.519 163.109 313.897C163.109 313.276 168.684 312.767 175.535 312.767C182.386 312.767 187.961 313.27 187.961 313.897Z"
        fill="black" />
    <path
        d="M210.955 158.794C210.955 158.794 212.119 171.456 212.61 175.452C213.102 179.448 214.22 190.94 215.372 194.738C216.524 198.537 222.8 205.144 223.41 203.618C224.02 202.092 227.12 191.748 225.878 185.626C224.635 179.505 224.257 174.158 225.031 172.626C225.804 171.094 228.578 169.308 228.578 169.308C225.342 167.655 222.201 165.825 219.168 163.825C214.706 160.818 211.565 157.432 210.955 158.794Z"
        fill="#F9B499" />
    <path
        d="M210.486 160.603C210.486 160.603 217.699 166.645 223.234 168.827C228.77 171.009 237.27 170.89 238.485 168.008C239.699 165.125 236.389 142.346 233.537 136.354C230.684 130.362 227.623 130.255 222.574 129.797C217.524 129.339 207.453 133.449 205.685 138.321C203.918 143.193 205.928 150.089 207.38 154.148C208.156 156.415 209.199 158.582 210.486 160.603Z"
        fill="#F9B499" />
    <path
        d="M229.882 151.282C229.298 151.271 228.722 151.134 228.196 150.879C227.669 150.624 227.204 150.258 226.832 149.807C225.955 148.746 225.451 147.426 225.397 146.051C225.343 144.675 225.742 143.319 226.533 142.193C226.874 141.684 227.33 141.264 227.864 140.965C228.398 140.667 228.995 140.499 229.606 140.475C230.217 140.451 230.825 140.572 231.381 140.829C231.937 141.085 232.424 141.469 232.803 141.95C233.676 143.011 234.177 144.33 234.231 145.704C234.286 147.077 233.889 148.431 233.102 149.558C232.75 150.054 232.292 150.464 231.76 150.758C231.227 151.052 230.636 151.221 230.029 151.254L229.882 151.282ZM229.747 140.819H229.617C229.057 140.849 228.512 141.007 228.022 141.281C227.533 141.554 227.112 141.936 226.793 142.396C226.049 143.459 225.674 144.737 225.725 146.033C225.776 147.33 226.251 148.574 227.075 149.575C227.421 150.016 227.867 150.368 228.375 150.603C228.883 150.838 229.44 150.949 229.999 150.927C230.559 150.905 231.105 150.75 231.593 150.476C232.082 150.202 232.498 149.815 232.808 149.349C233.548 148.285 233.921 147.008 233.87 145.712C233.819 144.417 233.347 143.173 232.526 142.17C232.185 141.759 231.76 141.426 231.28 141.193C230.8 140.96 230.275 140.832 229.741 140.819H229.747Z"
        fill="#3F3D56" />
    <path
        d="M237.604 150.106C236.937 150.106 236.305 149.541 235.813 148.541C235.288 147.362 235.006 146.089 234.983 144.799C234.906 143.512 235.086 142.222 235.514 141.006C235.937 139.938 236.542 139.31 237.208 139.31C237.875 139.31 238.547 139.836 239.05 140.876C240.055 143.267 240.16 145.942 239.343 148.405C238.925 149.479 238.315 150.101 237.649 150.101L237.604 150.106ZM237.27 139.649H237.225C236.694 139.649 236.18 140.215 235.819 141.136C235.042 143.51 235.144 146.084 236.107 148.388C236.542 149.281 237.09 149.779 237.621 149.762C238.152 149.745 238.66 149.196 239.021 148.275C239.432 147.104 239.607 145.863 239.535 144.623C239.509 143.381 239.239 142.155 238.739 141.017C238.355 140.147 237.79 139.649 237.27 139.649Z"
        fill="#3F3D56" />
    <path
        d="M233.836 143.923C233.814 143.92 233.792 143.913 233.773 143.901C233.753 143.89 233.736 143.875 233.722 143.857C233.709 143.839 233.699 143.819 233.693 143.797C233.687 143.775 233.686 143.753 233.689 143.73C233.706 143.598 233.752 143.47 233.826 143.359C233.899 143.247 233.997 143.154 234.113 143.086C234.312 143.008 234.528 142.98 234.74 143.005C234.953 143.029 235.156 143.106 235.333 143.227C235.353 143.237 235.371 143.252 235.386 143.269C235.4 143.286 235.412 143.306 235.418 143.328C235.425 143.349 235.428 143.372 235.426 143.395C235.424 143.417 235.417 143.439 235.406 143.459C235.386 143.5 235.35 143.531 235.307 143.546C235.263 143.561 235.216 143.558 235.175 143.538C235.046 143.447 234.899 143.385 234.743 143.359C234.588 143.332 234.428 143.342 234.277 143.386C234.211 143.429 234.155 143.485 234.112 143.551C234.069 143.618 234.04 143.692 234.028 143.77C234.026 143.793 234.019 143.815 234.008 143.835C233.998 143.855 233.983 143.873 233.965 143.887C233.947 143.902 233.926 143.912 233.904 143.918C233.882 143.924 233.859 143.926 233.836 143.923Z"
        fill="#3F3D56" />
    <path
        d="M210.289 152.616C210.253 152.616 210.218 152.605 210.189 152.585C210.16 152.565 210.137 152.536 210.125 152.503C210.11 152.46 210.111 152.413 210.129 152.371C210.146 152.329 210.179 152.296 210.221 152.277L225.268 146.353C225.289 146.345 225.312 146.341 225.335 146.342C225.358 146.343 225.381 146.348 225.402 146.357C225.423 146.367 225.442 146.38 225.457 146.397C225.473 146.414 225.486 146.433 225.494 146.455C225.509 146.497 225.507 146.543 225.489 146.584C225.472 146.625 225.439 146.658 225.398 146.675L210.351 152.616H210.289Z"
        fill="#3F3D56" />
    <path
        d="M211.695 152.48C211.695 152.48 210.678 154.487 213.503 154.594C216.327 154.702 218.247 153.311 216.891 151.621C215.536 149.931 213.503 148.264 215.581 146.003C217.66 143.742 221.738 141.831 219.461 139.305C217.185 136.778 208.769 139.073 210.865 137.044C212.96 135.014 222.692 132.832 227.058 133.115C231.424 133.398 239.58 130.001 241.365 125.569C243.15 121.138 240.653 112.941 234.785 113.394C228.916 113.846 224.539 119.046 221.941 119.351C219.343 119.657 213.988 116.83 209.515 119.408C205.041 121.985 204.883 129.187 204.482 130.074C204.081 130.961 198.032 132.295 196.965 138.445C195.897 144.595 198.71 149.502 201.212 152.237C203.714 154.973 204.849 156.024 204.849 156.024L211.695 152.48Z"
        fill="#3F3D56" />
    <g opacity="0.13">
        <path
            d="M199.591 144.171C199.57 144.171 199.549 144.166 199.53 144.156C199.512 144.146 199.496 144.132 199.484 144.115C198.995 143.285 198.764 142.329 198.817 141.368C198.817 141.333 198.831 141.3 198.855 141.276C198.88 141.251 198.913 141.238 198.947 141.238C198.982 141.238 199.015 141.251 199.039 141.276C199.063 141.3 199.077 141.333 199.077 141.368C199.028 142.273 199.246 143.174 199.704 143.956C199.713 143.971 199.72 143.987 199.723 144.004C199.726 144.021 199.726 144.038 199.722 144.055C199.718 144.072 199.711 144.088 199.701 144.102C199.692 144.116 199.679 144.128 199.664 144.137C199.643 144.155 199.618 144.167 199.591 144.171Z"
            fill="black" />
        <path
            d="M199.947 139.05C199.918 139.049 199.89 139.039 199.868 139.022C199.844 138.998 199.831 138.965 199.831 138.931C199.831 138.898 199.844 138.865 199.868 138.841C200.817 137.745 202.017 136.894 203.364 136.36C206.877 134.805 211.91 133.901 216.779 133.025C221.354 132.205 225.68 131.425 228.459 130.198C231.684 128.746 232.69 126.061 232.26 124.037C231.831 122.014 230.176 120.878 227.911 120.878C226.256 120.878 225.149 121.301 224.607 122.144C223.748 123.483 224.635 125.456 224.646 125.479C224.66 125.51 224.66 125.546 224.647 125.577C224.635 125.609 224.61 125.635 224.579 125.648C224.564 125.656 224.547 125.66 224.53 125.661C224.513 125.662 224.496 125.659 224.481 125.654C224.465 125.648 224.45 125.639 224.438 125.627C224.426 125.616 224.416 125.602 224.409 125.586C224.37 125.501 223.455 123.461 224.409 122.002C224.974 121.087 226.183 120.618 227.928 120.618C230.323 120.618 232.085 121.906 232.531 124.009C232.978 126.112 231.921 128.955 228.578 130.458C225.754 131.713 221.433 132.493 216.841 133.319C211.989 134.195 206.968 135.099 203.488 136.637C202.183 137.154 201.021 137.978 200.099 139.039C200.078 139.057 200.052 139.067 200.025 139.069C199.998 139.071 199.97 139.065 199.947 139.05Z"
            fill="black" />
        <path
            d="M202.771 150.751C202.746 150.751 202.722 150.744 202.701 150.731C202.68 150.718 202.663 150.7 202.652 150.677C202.602 150.564 201.466 147.936 207.097 145.319C209.312 144.29 211.752 143.295 214.35 142.368C214.382 142.357 214.417 142.359 214.448 142.374C214.478 142.389 214.502 142.415 214.514 142.447C214.524 142.48 214.522 142.515 214.508 142.545C214.493 142.576 214.467 142.6 214.435 142.611C211.848 143.538 209.419 144.527 207.205 145.556C201.828 148.055 202.873 150.542 202.884 150.564C202.892 150.58 202.898 150.597 202.899 150.614C202.9 150.632 202.898 150.649 202.892 150.666C202.886 150.682 202.877 150.697 202.865 150.71C202.853 150.723 202.838 150.733 202.822 150.739L202.771 150.751Z"
            fill="black" />
        <path
            d="M216.795 141.803C216.768 141.802 216.741 141.793 216.719 141.777C216.697 141.761 216.68 141.738 216.671 141.713C216.666 141.696 216.664 141.679 216.665 141.662C216.667 141.645 216.672 141.628 216.679 141.613C216.687 141.598 216.698 141.584 216.711 141.573C216.724 141.562 216.74 141.554 216.756 141.549C217.592 141.272 218.078 141.13 218.078 141.13C218.094 141.125 218.111 141.123 218.128 141.124C218.145 141.126 218.162 141.131 218.177 141.139C218.192 141.146 218.206 141.157 218.217 141.17C218.228 141.184 218.236 141.199 218.241 141.215C218.249 141.249 218.244 141.284 218.227 141.314C218.211 141.344 218.183 141.367 218.151 141.379C218.151 141.379 217.665 141.52 216.835 141.792L216.795 141.803Z"
            fill="black" />
    </g>
    <path
        d="M212.65 154.628C212.65 154.628 209.413 149.954 205.996 151.836C202.579 153.718 205.245 160.371 207.295 162.689C209.345 165.006 213.322 160.71 213.717 159.602"
        fill="#F9B499" />
    <path
        d="M221.738 208.072L175.213 185.276V153.261C175.213 152.493 174.909 151.757 174.366 151.214C173.824 150.671 173.088 150.366 172.321 150.366H96.0705C95.3035 150.366 94.5679 150.671 94.0256 151.214C93.4833 151.757 93.1786 152.493 93.1786 153.261V210.271C93.1786 211.039 93.4833 211.775 94.0256 212.318C94.5679 212.86 95.3035 213.165 96.0705 213.165H172.321C173.088 213.165 173.824 212.86 174.366 212.318C174.909 211.775 175.213 211.039 175.213 210.271V195.948L221.738 208.072Z"
        fill="#CCCCCC" />
    <path opacity="0.2" d="M119.098 156.403H99.7927V207.123H119.098V156.403Z" fill="black" />
    <path opacity="0.2" d="M170.955 156.403H168.543V207.123H170.955V156.403Z" fill="black" />
    <g opacity="0.2">
        <path
            d="M163.149 157.782H125.136C125.114 157.783 125.091 157.779 125.07 157.771C125.048 157.763 125.029 157.751 125.013 157.735C124.996 157.719 124.983 157.7 124.975 157.679C124.966 157.658 124.961 157.636 124.961 157.613C124.961 157.566 124.98 157.522 125.012 157.489C125.045 157.456 125.09 157.438 125.136 157.438H163.149C163.172 157.438 163.194 157.442 163.215 157.451C163.236 157.46 163.255 157.473 163.271 157.489C163.286 157.506 163.299 157.525 163.307 157.546C163.315 157.567 163.319 157.59 163.318 157.613C163.319 157.635 163.315 157.658 163.307 157.679C163.299 157.7 163.286 157.719 163.27 157.735C163.254 157.75 163.235 157.763 163.215 157.771C163.194 157.779 163.171 157.783 163.149 157.782Z"
            fill="black" />
    </g>
    <g opacity="0.2">
        <path
            d="M163.149 163.22H125.136C125.09 163.22 125.045 163.202 125.012 163.169C124.98 163.136 124.961 163.091 124.961 163.045C124.961 162.998 124.98 162.954 125.012 162.921C125.045 162.888 125.09 162.87 125.136 162.87H163.149C163.195 162.87 163.24 162.888 163.273 162.921C163.305 162.954 163.324 162.998 163.324 163.045C163.324 163.091 163.305 163.136 163.273 163.169C163.24 163.202 163.195 163.22 163.149 163.22Z"
            fill="black" />
    </g>
    <g opacity="0.2">
        <path
            d="M163.149 168.652H125.136C125.111 168.657 125.085 168.656 125.06 168.649C125.035 168.643 125.012 168.631 124.993 168.614C124.973 168.598 124.957 168.577 124.946 168.554C124.935 168.531 124.93 168.505 124.93 168.48C124.93 168.454 124.935 168.429 124.946 168.405C124.957 168.382 124.973 168.362 124.993 168.345C125.012 168.329 125.035 168.317 125.06 168.31C125.085 168.304 125.111 168.303 125.136 168.307H163.149C163.189 168.315 163.226 168.336 163.252 168.367C163.278 168.399 163.293 168.439 163.293 168.48C163.293 168.521 163.278 168.56 163.252 168.592C163.226 168.623 163.189 168.645 163.149 168.652Z"
            fill="black" />
    </g>
    <g opacity="0.2">
        <path
            d="M163.149 174.095H125.136C125.09 174.095 125.045 174.077 125.012 174.044C124.98 174.011 124.961 173.967 124.961 173.92C124.961 173.874 124.98 173.829 125.012 173.796C125.045 173.763 125.09 173.745 125.136 173.745H163.149C163.195 173.745 163.24 173.763 163.273 173.796C163.305 173.829 163.324 173.874 163.324 173.92C163.324 173.967 163.305 174.011 163.273 174.044C163.24 174.077 163.195 174.095 163.149 174.095Z"
            fill="black" />
    </g>
    <g opacity="0.2">
        <path
            d="M163.149 187.373H125.136C125.09 187.373 125.045 187.355 125.012 187.322C124.98 187.289 124.961 187.244 124.961 187.198C124.961 187.151 124.98 187.107 125.012 187.074C125.045 187.041 125.09 187.023 125.136 187.023H163.149C163.195 187.023 163.24 187.041 163.273 187.074C163.305 187.107 163.324 187.151 163.324 187.198C163.324 187.244 163.305 187.289 163.273 187.322C163.24 187.355 163.195 187.373 163.149 187.373Z"
            fill="black" />
    </g>
    <g opacity="0.2">
        <path
            d="M163.149 192.183H125.136C125.114 192.184 125.091 192.18 125.07 192.172C125.048 192.164 125.029 192.151 125.013 192.136C124.996 192.12 124.983 192.101 124.975 192.08C124.966 192.059 124.961 192.036 124.961 192.014C124.961 191.967 124.98 191.923 125.012 191.89C125.045 191.857 125.09 191.838 125.136 191.838H163.149C163.172 191.838 163.194 191.843 163.215 191.852C163.236 191.861 163.255 191.874 163.271 191.89C163.286 191.906 163.299 191.926 163.307 191.947C163.315 191.968 163.319 191.991 163.318 192.014C163.319 192.036 163.315 192.058 163.307 192.079C163.299 192.1 163.286 192.119 163.27 192.135C163.254 192.151 163.235 192.164 163.215 192.172C163.194 192.18 163.171 192.184 163.149 192.183Z"
            fill="black" />
    </g>
    <g opacity="0.2">
        <path
            d="M163.149 197.033H125.136C125.09 197.033 125.045 197.015 125.012 196.982C124.98 196.949 124.961 196.904 124.961 196.858C124.961 196.835 124.966 196.813 124.975 196.792C124.983 196.771 124.996 196.752 125.013 196.736C125.029 196.72 125.048 196.708 125.07 196.699C125.091 196.691 125.114 196.687 125.136 196.688H163.149C163.171 196.687 163.194 196.691 163.215 196.7C163.235 196.708 163.254 196.72 163.27 196.736C163.286 196.752 163.299 196.771 163.307 196.792C163.315 196.813 163.319 196.835 163.318 196.858C163.319 196.881 163.315 196.903 163.307 196.924C163.299 196.946 163.286 196.965 163.271 196.981C163.255 196.998 163.236 197.011 163.215 197.02C163.194 197.028 163.172 197.033 163.149 197.033Z"
            fill="black" />
    </g>
    <g opacity="0.2">
        <path
            d="M163.149 207.06H125.136C125.09 207.06 125.045 207.042 125.012 207.009C124.98 206.976 124.961 206.932 124.961 206.885C124.961 206.839 124.98 206.794 125.012 206.761C125.045 206.728 125.09 206.71 125.136 206.71H163.149C163.195 206.71 163.24 206.728 163.273 206.761C163.305 206.794 163.324 206.839 163.324 206.885C163.324 206.932 163.305 206.976 163.273 207.009C163.24 207.042 163.195 207.06 163.149 207.06Z"
            fill="black" />
    </g>
    <g opacity="0.2">
        <path
            d="M99.7927 207.298H99.7305C99.7092 207.29 99.6896 207.279 99.6729 207.263C99.6562 207.248 99.6427 207.23 99.6333 207.209C99.6238 207.189 99.6185 207.166 99.6178 207.144C99.617 207.121 99.6208 207.099 99.6289 207.077L118.94 156.352C118.948 156.331 118.959 156.311 118.975 156.295C118.99 156.278 119.008 156.264 119.029 156.255C119.049 156.246 119.072 156.24 119.094 156.239C119.117 156.239 119.139 156.242 119.16 156.251C119.182 156.259 119.202 156.271 119.218 156.287C119.235 156.303 119.249 156.322 119.258 156.343C119.268 156.364 119.273 156.386 119.273 156.409C119.274 156.432 119.27 156.455 119.262 156.477L99.9734 207.185C99.9617 207.222 99.9371 207.254 99.9039 207.275C99.8708 207.295 99.8313 207.304 99.7927 207.298Z"
            fill="black" />
    </g>
    <g opacity="0.5">
        <path
            d="M392.41 347.501C401.662 347.501 409.162 344.133 409.162 339.978C409.162 335.823 401.662 332.454 392.41 332.454C383.158 332.454 375.657 335.823 375.657 339.978C375.657 344.133 383.158 347.501 392.41 347.501Z"
            fill="black" />
        <path opacity="0.5"
            d="M392.41 347.501C401.662 347.501 409.162 344.133 409.162 339.978C409.162 335.823 401.662 332.454 392.41 332.454C383.158 332.454 375.657 335.823 375.657 339.978C375.657 344.133 383.158 347.501 392.41 347.501Z"
            fill="black" />
    </g>
    <path
        d="M372.81 228.721C374.601 229.506 378.99 229.405 378.99 229.405C378.99 229.405 378.046 226.533 377.967 226.358C377.001 224.346 373.957 221.016 371.483 221.35C371.073 221.417 370.682 221.569 370.335 221.797C369.988 222.025 369.693 222.324 369.47 222.674C369.246 223.024 369.098 223.417 369.036 223.827C368.975 224.238 369 224.657 369.111 225.058C369.523 226.776 371.28 228.054 372.81 228.721Z"
        fill="#403E57" />
    <path
        d="M430.27 213.781C427.785 213.51 424.831 216.918 423.921 218.959C423.842 219.134 422.933 222.034 422.978 222.034H423.034C422.56 222.565 422.063 223.164 421.532 223.786C420.561 224.984 419.476 226.341 418.392 227.901C417.203 229.566 416.115 231.301 415.133 233.096C414.021 235.101 413.089 237.2 412.348 239.37C412.348 239.37 412.348 239.421 412.348 239.449C412.348 238.714 412.348 236.662 412.308 236.51C412.02 234.294 410.168 230.185 407.711 229.727C407.302 229.666 406.885 229.692 406.487 229.803C406.089 229.913 405.718 230.106 405.399 230.368C405.08 230.631 404.819 230.957 404.634 231.327C404.448 231.696 404.342 232.1 404.322 232.513C404.175 234.271 405.452 236.029 406.694 237.143C408.095 238.398 411.987 239.607 412.297 239.703C411.6 241.926 411.051 244.191 410.654 246.486C410.416 247.826 410.219 249.182 410.032 250.539C410.032 249.906 410.032 249.341 410.032 249.262C409.744 247.046 407.886 242.937 405.429 242.479C405.021 242.417 404.604 242.442 404.206 242.552C403.808 242.662 403.437 242.854 403.118 243.116C402.798 243.378 402.537 243.704 402.352 244.074C402.166 244.443 402.06 244.847 402.04 245.26C401.899 247.018 403.17 248.781 404.418 249.895C405.666 251.008 408.976 252.122 409.852 252.399C409.789 252.924 409.716 253.444 409.654 253.97C409.354 256.48 409.089 258.984 408.711 261.431C408.581 262.296 408.428 263.127 408.276 263.986C408.276 263.421 408.276 262.952 408.242 262.856C407.959 260.64 406.101 256.531 403.644 256.073C403.236 256.011 402.819 256.037 402.421 256.146C402.023 256.256 401.652 256.448 401.333 256.71C401.013 256.972 400.752 257.299 400.567 257.668C400.381 258.037 400.275 258.441 400.255 258.854C400.114 260.612 401.385 262.375 402.633 263.489C403.881 264.602 406.869 265.608 407.909 265.942C407.728 266.807 407.547 267.672 407.344 268.497C407.186 269.062 407.073 269.627 406.881 270.193C406.688 270.758 406.525 271.295 406.35 271.837C405.971 272.872 405.593 273.94 405.22 274.935C404.949 275.63 404.683 276.292 404.418 276.953C404.553 276.099 404.779 274.415 404.785 274.268C404.758 272.303 404.227 270.378 403.243 268.678C403.249 268.458 403.236 268.239 403.204 268.022C403.151 267.61 403.013 267.214 402.798 266.859C402.583 266.504 402.295 266.198 401.955 265.962C401.614 265.725 401.227 265.563 400.819 265.485C400.412 265.408 399.992 265.417 399.589 265.512C397.171 266.157 395.635 270.402 395.528 272.629C395.528 272.759 395.607 274.195 395.674 275.105C395.556 274.579 395.443 274.065 395.307 273.528C395.059 272.454 394.743 271.397 394.471 270.255L393.969 268.604C393.816 268.039 393.579 267.474 393.404 266.909C392.924 265.597 392.382 264.297 391.8 262.997C392.732 262.777 396.042 261.934 397.369 260.911C398.696 259.888 400.091 258.232 400.08 256.468C400.092 256.053 400.016 255.64 399.857 255.256C399.699 254.873 399.461 254.527 399.16 254.241C398.859 253.955 398.501 253.736 398.11 253.598C397.719 253.459 397.302 253.405 396.889 253.439C394.404 253.71 392.246 257.672 391.805 259.86C391.777 259.996 391.63 261.601 391.568 262.483C391.212 261.703 390.862 260.928 390.478 260.154C389.348 257.893 388.174 255.683 386.993 253.45C386.632 252.772 386.276 252.082 385.92 251.398C386.259 251.325 390.213 250.403 391.698 249.262C393.02 248.25 394.421 246.588 394.409 244.824C394.421 244.409 394.345 243.996 394.187 243.612C394.028 243.228 393.791 242.881 393.49 242.595C393.189 242.309 392.831 242.089 392.44 241.95C392.048 241.811 391.632 241.756 391.218 241.789C388.733 242.06 386.575 246.023 386.135 248.21C386.101 248.374 385.892 250.686 385.869 251.274C385.084 249.77 384.322 248.261 383.61 246.752C382.662 244.706 381.847 242.6 381.17 240.449C381.328 240.41 385.457 239.472 386.982 238.302C388.304 237.29 389.704 235.628 389.693 233.859C389.704 233.443 389.627 233.03 389.468 232.646C389.309 232.262 389.071 231.916 388.769 231.631C388.468 231.345 388.11 231.126 387.718 230.988C387.326 230.85 386.91 230.796 386.496 230.829C384.011 231.1 381.859 235.063 381.413 237.25C381.379 237.42 381.153 239.907 381.147 240.359C381.108 240.235 381.051 240.11 381.017 239.986C380.336 237.818 379.848 235.593 379.56 233.339C379.419 232.095 379.357 230.902 379.323 229.738C380.108 229.642 383.7 229.173 385.191 228.263C386.682 227.353 388.191 225.9 388.371 224.148C388.429 223.737 388.401 223.319 388.287 222.921C388.172 222.523 387.976 222.153 387.709 221.835C387.443 221.518 387.113 221.261 386.74 221.079C386.368 220.898 385.961 220.798 385.547 220.785C383.051 220.785 380.464 224.476 379.78 226.601C379.747 226.72 379.492 227.935 379.323 228.822C379.323 228.297 379.323 227.754 379.323 227.251C379.323 225.363 379.447 223.628 379.566 222.096C379.639 221.225 379.724 220.44 379.809 219.705C380.532 219.208 383.423 217.167 384.327 215.703C385.231 214.239 385.903 212.227 385.259 210.582C385.121 210.189 384.902 209.83 384.617 209.527C384.331 209.225 383.985 208.986 383.601 208.826C383.217 208.666 382.803 208.589 382.387 208.599C381.971 208.609 381.562 208.707 381.187 208.886C378.967 210.017 378.363 214.539 378.752 216.709C378.752 216.901 379.622 219.824 379.656 219.795L379.701 219.767C379.605 220.474 379.509 221.231 379.419 222.056C379.266 223.588 379.108 225.323 379.063 227.223C378.997 229.268 379.046 231.316 379.21 233.356C379.384 235.646 379.762 237.916 380.34 240.139L380.368 240.218C379.972 239.602 378.815 237.906 378.713 237.787C377.25 236.091 373.437 233.695 371.139 234.673C370.761 234.846 370.425 235.097 370.15 235.408C369.876 235.72 369.671 236.087 369.547 236.483C369.423 236.88 369.385 237.298 369.433 237.711C369.482 238.123 369.616 238.521 369.828 238.878C370.681 240.427 372.714 241.19 374.347 241.433C376.205 241.704 380.119 240.568 380.43 240.472C381.075 242.713 381.867 244.909 382.802 247.046C383.367 248.295 383.932 249.539 384.497 250.771C384.135 250.245 383.813 249.782 383.762 249.725C382.299 248.029 378.487 245.627 376.188 246.605C375.811 246.778 375.474 247.029 375.2 247.341C374.926 247.653 374.72 248.019 374.597 248.415C374.473 248.812 374.434 249.23 374.483 249.643C374.531 250.055 374.666 250.453 374.878 250.81C375.725 252.359 377.764 253.122 379.396 253.365C381.029 253.608 384.423 252.71 385.31 252.455C385.547 252.93 385.773 253.399 386.01 253.874C387.14 256.135 388.27 258.396 389.337 260.623C389.71 261.409 390.043 262.2 390.382 262.991C390.066 262.528 389.817 262.138 389.744 262.081C388.287 260.386 384.474 257.989 382.175 258.967C381.797 259.139 381.46 259.39 381.185 259.702C380.911 260.013 380.705 260.38 380.581 260.777C380.457 261.173 380.419 261.592 380.468 262.005C380.516 262.418 380.652 262.815 380.865 263.172C381.712 264.721 383.745 265.484 385.383 265.727C387.021 265.97 390.088 265.162 391.139 264.862C391.461 265.682 391.789 266.502 392.065 267.31C392.24 267.875 392.449 268.389 392.596 268.96C392.743 269.531 392.907 270.091 393.059 270.622C393.314 271.691 393.585 272.793 393.811 273.838C393.969 274.568 394.11 275.269 394.257 275.969C393.895 275.178 393.127 273.646 393.082 273.528C391.896 271.634 388.49 268.678 386.067 269.3C385.667 269.413 385.296 269.609 384.978 269.876C384.659 270.142 384.4 270.473 384.218 270.846C384.036 271.219 383.934 271.627 383.92 272.042C383.906 272.458 383.979 272.871 384.135 273.256C384.74 274.912 386.637 275.975 388.23 276.467C389.981 277.004 393.878 276.512 394.353 276.467C394.59 277.631 394.805 278.762 394.991 279.858C395.641 283.572 396.047 286.692 396.301 288.874C396.341 289.258 396.381 289.603 396.414 289.931H388.931L391.348 337.152C391.444 338.877 392.195 340.501 393.448 341.691C394.7 342.881 396.359 343.548 398.086 343.556C399.815 343.555 401.477 342.89 402.73 341.699C403.983 340.507 404.731 338.879 404.819 337.152L407.236 289.891H400.233L400.385 289.569C401.345 287.568 402.678 284.686 404.119 281.158C404.576 280.028 405.045 278.852 405.514 277.614C405.982 277.716 409.829 278.496 411.625 278.089C413.246 277.722 415.217 276.8 415.946 275.195C416.13 274.822 416.233 274.415 416.25 274C416.266 273.585 416.195 273.171 416.041 272.785C415.887 272.399 415.654 272.049 415.356 271.76C415.059 271.47 414.703 271.246 414.314 271.103C411.941 270.306 408.326 273.002 407.005 274.799C406.926 274.901 406.203 276.15 405.762 276.942C405.954 276.433 406.141 275.947 406.327 275.421C406.705 274.392 407.056 273.352 407.457 272.233C407.62 271.668 407.79 271.137 407.954 270.577C408.118 270.017 408.247 269.447 408.4 268.847C408.722 267.491 408.965 266.106 409.213 264.704C410.117 265.032 413.342 266.151 415.008 266.038C416.675 265.925 418.759 265.309 419.719 263.828C419.958 263.488 420.123 263.102 420.202 262.694C420.282 262.287 420.275 261.867 420.182 261.462C420.089 261.057 419.911 260.677 419.661 260.345C419.411 260.014 419.094 259.738 418.73 259.538C416.505 258.407 412.517 260.504 410.942 262.081C410.846 262.177 409.812 263.438 409.298 264.139C409.428 263.291 409.563 262.443 409.671 261.59C409.981 259.114 410.236 256.593 410.456 254.077C410.535 253.309 410.614 252.546 410.699 251.777C411.015 251.896 414.822 253.314 416.691 253.184C418.352 253.066 420.442 252.455 421.402 250.974C421.64 250.634 421.804 250.247 421.883 249.84C421.961 249.432 421.954 249.012 421.86 248.608C421.766 248.203 421.589 247.823 421.338 247.491C421.088 247.16 420.771 246.885 420.408 246.684C418.188 245.554 414.195 247.651 412.625 249.228C412.506 249.346 411.06 251.161 410.71 251.636C410.891 249.94 411.083 248.244 411.343 246.616C411.678 244.385 412.16 242.177 412.783 240.009C412.93 240.065 416.895 241.563 418.81 241.427C420.47 241.314 422.56 240.704 423.52 239.223C423.758 238.883 423.922 238.496 424.001 238.088C424.08 237.681 424.072 237.261 423.978 236.856C423.884 236.452 423.707 236.071 423.456 235.74C423.206 235.409 422.889 235.133 422.526 234.933C420.306 233.802 416.313 235.899 414.743 237.476C414.619 237.595 413.048 239.551 412.806 239.924C412.839 239.794 412.868 239.664 412.907 239.539C413.591 237.383 414.464 235.291 415.517 233.288C416.081 232.157 416.692 231.146 417.307 230.151C418.013 230.507 421.261 232.089 423.012 232.163C424.763 232.236 426.819 231.846 427.937 230.467C428.211 230.155 428.416 229.788 428.539 229.392C428.662 228.995 428.701 228.576 428.652 228.164C428.603 227.751 428.467 227.354 428.255 226.997C428.042 226.64 427.757 226.332 427.417 226.092C425.339 224.707 421.148 226.375 419.403 227.788C419.307 227.861 418.431 228.738 417.799 229.388C418.081 228.947 418.363 228.483 418.646 228.065C419.691 226.488 420.741 225.109 421.685 223.893C422.249 223.209 422.735 222.599 423.21 222.034C424.091 222.034 427.626 221.915 429.168 221.186C430.71 220.457 432.405 219.157 432.766 217.427C432.868 217.022 432.882 216.6 432.809 216.188C432.735 215.777 432.575 215.386 432.339 215.041C432.103 214.697 431.796 214.406 431.439 214.189C431.083 213.972 430.684 213.833 430.27 213.781ZM402.757 280.582C401.255 284.041 399.871 286.867 398.883 288.829L398.318 289.891H398.148C398.103 289.513 398.047 289.094 397.985 288.62C397.68 286.421 397.205 283.284 396.46 279.547C396.228 278.366 395.957 277.106 395.669 275.822C396.838 275.351 397.978 274.813 399.086 274.212C400.362 275.596 403.644 277.219 404.068 277.428C403.638 278.524 403.192 279.587 402.757 280.582Z"
        fill="#403E57" />
    <path
        d="M417.177 229.687C417.217 229.687 417.974 226.771 418.002 226.578C418.307 224.368 417.601 219.914 415.353 218.823C414.974 218.653 414.564 218.564 414.149 218.563C413.734 218.562 413.323 218.649 412.944 218.818C412.564 218.986 412.224 219.233 411.947 219.541C411.669 219.85 411.459 220.214 411.331 220.609C410.727 222.266 411.49 224.3 412.393 225.697C413.449 227.347 417.172 229.687 417.177 229.687Z"
        fill="#403E57" />
</svg>