<svg width="25" height="25" viewBox="0 0 25 25" fill="none" xmlns="http://www.w3.org/2000/svg">
    <path
        d="M22.1162 11.153L5.11619 3.15298C4.94503 3.072 4.75437 3.04133 4.56644 3.06455C4.37851 3.08777 4.20105 3.16392 4.05474 3.28413C3.90844 3.40434 3.79931 3.56366 3.74008 3.74351C3.68084 3.92337 3.67395 4.11636 3.72019 4.29998L5.65919 12.058L3.72019 19.816C3.67352 19.9997 3.68011 20.1929 3.7392 20.3729C3.7983 20.553 3.90745 20.7125 4.05389 20.8329C4.20033 20.9532 4.378 21.0293 4.56613 21.0524C4.75425 21.0754 4.94504 21.0444 5.11619 20.963L22.1162 12.963C22.288 12.8822 22.4333 12.7542 22.535 12.594C22.6367 12.4337 22.6908 12.2478 22.6908 12.058C22.6908 11.8681 22.6367 11.6822 22.535 11.522C22.4333 11.3617 22.288 11.2337 22.1162 11.153V11.153ZM6.17119 18.255L7.01019 14.898L12.6902 12.058L7.01019 9.21798L6.17119 5.86098L19.3412 12.058L6.17119 18.255Z"
        fill="white" />
</svg>